<?xml version="1.0" encoding="utf-8"?>
<!-- Generator: Adobe Illustrator 24.0.0, SVG Export Plug-In . SVG Version: 6.00 Build 0)  -->
<svg version="1.1" id="图层_1" xmlns="http://www.w3.org/2000/svg" xmlns:xlink="http://www.w3.org/1999/xlink" x="0px" y="0px"
	 viewBox="0 0 108 24" style="enable-background:new 0 0 108 24;" xml:space="preserve">
<style type="text/css">
	.st0{fill-rule:evenodd;clip-rule:evenodd;fill:#040201;}
	.st1{fill-rule:evenodd;clip-rule:evenodd;fill:#E80000;}
</style>
<title>编组 10</title>
<desc>Created with Sketch.</desc>
<g id="帐号中心">
	<g id="隐私中心" transform="translate(-360.000000, -12.000000)">
		<g id="编组-4">
			<g id="编组-7">
				<g id="编组-10" transform="translate(360.000000, 12.000000)">
					<g id="编组" transform="translate(2.000000, 4.000000)">
						<path id="Fill-2" class="st0" d="M56.4,10.4c0,1.9-0.9,2.9-2.7,2.9c-1.7,0-2.7-1-2.7-3V3.7h-2.4v6.7c0,3.3,1.8,5.2,5,5.2
							c3.2,0,5.1-1.9,5.1-5.3V3.7h-2.4V10.4z"/>
						<polygon id="Fill-4" class="st0" points="84,11.8 81.3,3.7 79.3,3.7 76.7,11.8 74.1,3.7 71.5,3.7 75.6,15.4 77.6,15.4 
							80.3,7.7 82.9,15.4 84.9,15.4 89,3.7 86.6,3.7 						"/>
						<polygon id="Fill-6" class="st0" points="93.3,10.4 97.6,10.4 97.6,8.2 93.3,8.2 93.3,5.8 99.6,5.8 99.6,3.7 90.9,3.7 
							90.9,15.4 99.8,15.4 99.8,13.3 93.3,13.3 						"/>
						<polygon id="Fill-8" class="st0" points="102.7,15.4 105,15.4 105,3.7 102.7,3.7 						"/>
						<path id="Fill-10" class="st0" d="M66.2,6.7l1.7,3.9h0l0.1,0.3h-3.6l0.1-0.3h0L66.2,6.7z M68.9,13l1.1,2.4h2.5L67.3,3.8l0-0.1
							h-2.1L60,15.4h2.4l1-2.3h0l0.1-0.2H68.9z"/>
						<path id="Fill-11" class="st1" d="M11.8,14.2c0,0,0.1,0,0-0.1h0c-3.6-7.9-8.6-14-8.6-14S0.5,2.7,0.7,5.3
							c0.1,1.9,1.6,3.1,1.6,3.1c2.4,2.3,8.1,5.2,9.4,5.9C11.7,14.2,11.7,14.2,11.8,14.2"/>
					</g>
					<path id="Fill-17" class="st1" d="M12.9,20.2c0-0.1-0.1-0.1-0.1-0.1v0l-9.5,0.3c1,1.8,2.8,3.3,4.6,2.8c1.2-0.3,4.1-2.3,5-3l0,0
						C12.9,20.2,12.9,20.2,12.9,20.2"/>
					<path id="Fill-24" class="st1" d="M13,19.3c0-0.1,0-0.1,0-0.1l0,0C8.8,16.3,0.7,12,0.7,12C0,14.3,1,16.1,1,16.1
						C2,18.3,4,19,4,19c0.9,0.4,1.8,0.4,1.8,0.4C5.9,19.4,11.4,19.4,13,19.3C13,19.4,13,19.3,13,19.3"/>
					<path id="Fill-30" class="st1" d="M13.7,0c-0.4,0-1.5,0.3-1.5,0.3C9.6,1,9,3.2,9,3.2c-0.5,1.4,0,3,0,3c0.8,3.7,5,9.9,5.9,11.1
						c0.1,0.1,0.1,0,0.1,0c0.1,0,0.1-0.1,0.1-0.1l0,0C16.5,3.6,13.7,0,13.7,0"/>
					<path id="Fill-36" class="st1" d="M16.8,17.4c0.1,0,0.1-0.1,0.1-0.1l0,0c0.9-1.3,5-7.4,5.9-11.1c0,0,0.5-1.8,0-3
						c0,0-0.6-2.3-3.1-2.9c0,0-0.7-0.2-1.5-0.3c0,0-2.8,3.6-1.4,17.3h0C16.7,17.4,16.8,17.4,16.8,17.4"/>
					<path id="Fill-42" class="st1" d="M19,20.1c0,0-0.1,0-0.1,0.1c0,0,0,0.1,0,0.1l0,0c0.9,0.7,3.7,2.6,5,3c0,0,2.5,0.8,4.6-2.8
						L19,20.1L19,20.1z"/>
					<path id="Fill-48" class="st1" d="M31.1,12c0,0-8.1,4.3-12.2,7.2l0,0c0,0-0.1,0,0,0.1c0,0,0,0.1,0.1,0.1v0c1.5,0,7.2,0,7.3,0
						c0,0,0.7,0,1.6-0.4c0,0,2-0.6,3.1-2.9C30.9,16,31.8,14.2,31.1,12"/>
					<path id="Fill-54" class="st1" d="M18.1,18.2c0,0,0.1,0,0.1,0v0c1.4-0.7,7-3.6,9.4-5.8c0,0,1.5-1.2,1.6-3.1
						c0.2-2.7-2.5-5.1-2.5-5.1s-5,6-8.6,13.9h0C18,18,18,18.1,18.1,18.2"/>
					<polygon id="Fill-1" class="st0" points="45,12.4 39.6,12.4 39.6,7.7 37.2,7.7 37.2,19.4 39.6,19.4 39.6,14.7 45,14.7 45,19.4 
						47.4,19.4 47.4,7.7 45,7.7 					"/>
				</g>
			</g>
		</g>
	</g>
</g>
</svg>
